# xmcd CD database file
#
# Track frame offsets:
#	150
#	17771
#	39921
#	60718
#	78923
#	100867
#	122890
#	140039
#	156415
#	178846
#	199861
#	225518
#	242374
#	264015
#	282336
#
# Disc length: 4053 seconds
#
# Revision: 0
# Processed by: cddbd v1.5.2PL0 Copyright (c) Steve Scherf et al.
# Submitted via: CDex 1.70beta2
#
DISCID=c60fd30f
DTITLE=Tappin, Arturo - Inside Out
DYEAR=2006
DGENRE=Jazz
TTITLE0=Mia Amor
TTITLE1=Heaven
TTITLE2=Joe's River
TTITLE3=Life
TTITLE4=Unfaithful
TTITLE5=Crazy
TTITLE6=Magic Ride
TTITLE7=It Always Gets Better
TTITLE8=Khus Khus
TTITLE9=Love You Inside Out
TTITLE10=Broad Street Jsm
TTITLE11=Smell Yah Own Finger
TTITLE12=Tempted To Touch
TTITLE13=Smile
TTITLE14=6 Roads
EXTD=YEAR: 2006
EXTT0=
EXTT1=
EXTT2=
EXTT3=
EXTT4=
EXTT5=
EXTT6=
EXTT7=
EXTT8=
EXTT9=
EXTT10=
EXTT11=
EXTT12=
EXTT13=
EXTT14=
PLAYORDER=
